<svg xmlns="http://www.w3.org/2000/svg" viewBox="0 0 512 512" width="512" height="512">
  <rect width="512" height="512" fill="white"/>
  <g transform="translate(256,268)">
    <rect x="-120" y="-90" width="240" height="18" rx="4" fill="#1E293B"/>
    <rect x="-105" y="-62" width="210" height="18" rx="4" fill="#334155"/>
    <rect x="-90" y="-34" width="180" height="18" rx="4" fill="#475569"/>
    <circle cx="0" cy="-36" r="85" fill="none" stroke="#1E293B" stroke-width="10"/>
    <circle cx="0" cy="-36" r="68" fill="none" stroke="#94A3B8" stroke-width="3"/>
    <line x1="0" y1="-115" x2="0" y2="40" stroke="#1E293B" stroke-width="8" stroke-linecap="round"/>
    <line x1="-80" y1="-36" x2="80" y2="-36" stroke="#1E293B" stroke-width="8" stroke-linecap="round"/>
    <polygon points="0,-120 -8,-100 0,-105 8,-100" fill="#1E293B"/>
    <polygon points="0,45 -8,25 0,30 8,25" fill="#475569"/>
    <polygon points="-85,-36 -65,-44 -70,-36 -65,-28" fill="#1E293B"/>
    <polygon points="85,-36 65,-44 70,-36 65,-28" fill="#475569"/>
    <circle cx="0" cy="-36" r="6" fill="#64748B"/>
    <circle cx="0" cy="-36" r="3" fill="white"/>
    <path d="M-5,-115 L0,-130 L5,-115" fill="none" stroke="#64748B" stroke-width="2.5" stroke-linecap="round" stroke-linejoin="round"/>
    <circle cx="0" cy="-68" r="3" fill="#64748B"/>
    <circle cx="0" cy="-4" r="3" fill="#64748B"/>
    <circle cx="-52" cy="-36" r="3" fill="#64748B"/>
    <circle cx="52" cy="-36" r="3" fill="#64748B"/>
  </g>
</svg>