<svg xmlns="http://www.w3.org/2000/svg" viewBox="0 0 512 512" width="512" height="512">
  <defs>
    <linearGradient id="mainGrad" x1="0%" y1="0%" x2="100%" y2="100%">
      <stop offset="0%" style="stop-color:#2563EB"/>
      <stop offset="50%" style="stop-color:#4F46E5"/>
      <stop offset="100%" style="stop-color:#7C3AED"/>
    </linearGradient>
    <linearGradient id="cyanHL" x1="0%" y1="0%" x2="100%" y2="100%">
      <stop offset="0%" style="stop-color:#06B6D4;stop-opacity:0.9"/>
      <stop offset="100%" style="stop-color:#2563EB;stop-opacity:0.4"/>
    </linearGradient>
    <linearGradient id="s1" x1="0%" y1="0%" x2="100%" y2="0%">
      <stop offset="0%" style="stop-color:#3B82F6"/><stop offset="100%" style="stop-color:#60A5FA"/>
    </linearGradient>
    <linearGradient id="s2" x1="0%" y1="0%" x2="100%" y2="0%">
      <stop offset="0%" style="stop-color:#6366F1"/><stop offset="100%" style="stop-color:#818CF8"/>
    </linearGradient>
    <linearGradient id="s3" x1="0%" y1="0%" x2="100%" y2="0%">
      <stop offset="0%" style="stop-color:#8B5CF6"/><stop offset="100%" style="stop-color:#A78BFA"/>
    </linearGradient>
  </defs>
  <rect width="512" height="512" fill="#0F172A"/>
  <g transform="translate(256,268)">
    <rect x="-120" y="-90" width="240" height="18" rx="4" fill="url(#s1)"/>
    <rect x="-105" y="-62" width="210" height="18" rx="4" fill="url(#s2)"/>
    <rect x="-90" y="-34" width="180" height="18" rx="4" fill="url(#s3)"/>
    <circle cx="0" cy="-36" r="85" fill="none" stroke="url(#mainGrad)" stroke-width="10"/>
    <circle cx="0" cy="-36" r="68" fill="none" stroke="url(#cyanHL)" stroke-width="3"/>
    <line x1="0" y1="-115" x2="0" y2="40" stroke="url(#mainGrad)" stroke-width="8" stroke-linecap="round"/>
    <line x1="-80" y1="-36" x2="80" y2="-36" stroke="url(#mainGrad)" stroke-width="8" stroke-linecap="round"/>
    <polygon points="0,-120 -8,-100 0,-105 8,-100" fill="#60A5FA"/>
    <polygon points="0,45 -8,25 0,30 8,25" fill="#A78BFA"/>
    <polygon points="-85,-36 -65,-44 -70,-36 -65,-28" fill="#60A5FA"/>
    <polygon points="85,-36 65,-44 70,-36 65,-28" fill="#A78BFA"/>
    <circle cx="0" cy="-36" r="6" fill="url(#cyanHL)"/>
    <circle cx="0" cy="-36" r="3" fill="#0F172A"/>
    <path d="M-5,-115 L0,-130 L5,-115" fill="none" stroke="#22D3EE" stroke-width="2.5" stroke-linecap="round" stroke-linejoin="round"/>
    <circle cx="0" cy="-68" r="3" fill="#22D3EE"/>
    <circle cx="0" cy="-4" r="3" fill="#22D3EE"/>
    <circle cx="-52" cy="-36" r="3" fill="#22D3EE"/>
    <circle cx="52" cy="-36" r="3" fill="#22D3EE"/>
  </g>
</svg>